<svg width="50" height="50" viewBox="0 0 50 50" fill="none" xmlns="http://www.w3.org/2000/svg">
<path d="M25 10.4167C25.0025 9.5834 24.8383 8.75805 24.5171 7.98917C24.1959 7.22029 23.7242 6.52339 23.1297 5.93947C22.5353 5.35556 21.83 4.8964 21.0555 4.58903C20.281 4.28165 19.4529 4.13225 18.6198 4.14961C17.7867 4.16698 16.9655 4.35076 16.2045 4.69014C15.4434 5.02953 14.7579 5.51766 14.1883 6.12585C13.6187 6.73403 13.1765 7.44997 12.8876 8.23157C12.5987 9.01317 12.4691 9.84464 12.5062 10.6771C11.2817 10.992 10.1448 11.5814 9.18173 12.4007C8.21867 13.2199 7.45466 14.2477 6.94759 15.4059C6.44052 16.5642 6.20367 17.8227 6.25498 19.0861C6.30629 20.3494 6.64441 21.5846 7.24375 22.6979C6.18996 23.554 5.3613 24.6546 4.82987 25.904C4.29844 27.1534 4.08033 28.5137 4.19451 29.8666C4.30869 31.2196 4.7517 32.5241 5.48501 33.6667C6.21832 34.8094 7.21972 35.7555 8.40208 36.4229C8.25608 37.5526 8.34321 38.7002 8.6581 39.7948C8.97299 40.8895 9.50895 41.908 10.2329 42.7874C10.9568 43.6668 11.8534 44.3885 12.8671 44.9078C13.8809 45.4272 14.9904 45.7332 16.127 45.807C17.2637 45.8807 18.4034 45.7207 19.4758 45.3367C20.5482 44.9527 21.5305 44.353 22.362 43.5745C23.1935 42.796 23.8566 41.8553 24.3103 40.8106C24.7641 39.7658 24.9988 38.6391 25 37.5V10.4167Z" stroke="currentColor" stroke-width="2" stroke-linecap="round" stroke-linejoin="round"/>
<path d="M18.75 27.0833C20.4991 26.468 22.0264 25.3479 23.1389 23.8646C24.2514 22.3813 24.8991 20.6014 25 18.75" stroke="currentColor" stroke-width="2" stroke-linecap="round" stroke-linejoin="round"/>
<path d="M12.5062 10.6771C12.5474 11.6849 12.8319 12.6677 13.3354 13.5417" stroke="currentColor" stroke-width="2" stroke-linecap="round" stroke-linejoin="round"/>
<path d="M7.24375 22.7C7.62488 22.3896 8.03272 22.1135 8.4625 21.875" stroke="currentColor" stroke-width="2" stroke-linecap="round" stroke-linejoin="round"/>
<path d="M12.5 37.5C11.0642 37.5007 9.65264 37.1304 8.40208 36.425" stroke="currentColor" stroke-width="2" stroke-linecap="round" stroke-linejoin="round"/>
<path d="M25 27.0833H33.3333" stroke="currentColor" stroke-width="2" stroke-linecap="round" stroke-linejoin="round"/>
<path d="M25 37.5H37.5C38.6051 37.5 39.6649 37.939 40.4463 38.7204C41.2277 39.5018 41.6667 40.5616 41.6667 41.6667V43.75" stroke="currentColor" stroke-width="2" stroke-linecap="round" stroke-linejoin="round"/>
<path d="M25 16.6667H41.6667" stroke="currentColor" stroke-width="2" stroke-linecap="round" stroke-linejoin="round"/>
<path d="M33.3333 16.6667V10.4167C33.3333 9.3116 33.7723 8.25179 34.5537 7.47039C35.3351 6.68899 36.3949 6.25 37.5 6.25" stroke="currentColor" stroke-width="2" stroke-linecap="round" stroke-linejoin="round"/>
<path d="M33.3333 28.125C33.9086 28.125 34.375 27.6586 34.375 27.0833C34.375 26.508 33.9086 26.0417 33.3333 26.0417C32.758 26.0417 32.2917 26.508 32.2917 27.0833C32.2917 27.6586 32.758 28.125 33.3333 28.125Z" stroke="currentColor" stroke-width="2" stroke-linecap="round" stroke-linejoin="round"/>
<path d="M37.5 7.29168C38.0753 7.29168 38.5417 6.82531 38.5417 6.25001C38.5417 5.67471 38.0753 5.20834 37.5 5.20834C36.9247 5.20834 36.4583 5.67471 36.4583 6.25001C36.4583 6.82531 36.9247 7.29168 37.5 7.29168Z" stroke="currentColor" stroke-width="2" stroke-linecap="round" stroke-linejoin="round"/>
<path d="M41.6667 44.7917C42.242 44.7917 42.7083 44.3253 42.7083 43.75C42.7083 43.1747 42.242 42.7083 41.6667 42.7083C41.0914 42.7083 40.625 43.1747 40.625 43.75C40.625 44.3253 41.0914 44.7917 41.6667 44.7917Z" stroke="currentColor" stroke-width="2" stroke-linecap="round" stroke-linejoin="round"/>
<path d="M41.6667 17.7083C42.242 17.7083 42.7083 17.242 42.7083 16.6667C42.7083 16.0914 42.242 15.625 41.6667 15.625C41.0914 15.625 40.625 16.0914 40.625 16.6667C40.625 17.242 41.0914 17.7083 41.6667 17.7083Z" stroke="currentColor" stroke-width="2" stroke-linecap="round" stroke-linejoin="round"/>
</svg>
