<svg width="50" height="50" viewBox="0 0 50 50" fill="none" xmlns="http://www.w3.org/2000/svg">
<rect width="50" height="50" rx="10" fill="#1E3A5F"/>
<path d="M20.3101 24.3723H26.4341" stroke="#2563EB" stroke-width="2.22" stroke-linecap="round" stroke-linejoin="round"/>
<path d="M20.3101 18.248H26.4341" stroke="#2563EB" stroke-width="2.22" stroke-linecap="round" stroke-linejoin="round"/>
<path d="M26.4341 38.1514V33.5584C26.4341 32.7463 26.1115 31.9674 25.5373 31.3932C24.963 30.8189 24.1842 30.4963 23.3721 30.4963C22.56 30.4963 21.7812 30.8189 21.2069 31.3932C20.6327 31.9674 20.3101 32.7463 20.3101 33.5584V38.1514" stroke="#2563EB" stroke-width="2.22" stroke-linecap="round" stroke-linejoin="round"/>
<path d="M14.1861 21.3101H11.124C10.3119 21.3101 9.5331 21.6327 8.95886 22.2069C8.38462 22.7812 8.06201 23.56 8.06201 24.3721V35.0892C8.06201 35.9013 8.38462 36.6802 8.95886 37.2544C9.5331 37.8287 10.3119 38.1513 11.124 38.1513H35.6203C36.4324 38.1513 37.2113 37.8287 37.7855 37.2544C38.3597 36.6802 38.6823 35.9013 38.6823 35.0892V19.7791C38.6823 18.967 38.3597 18.1881 37.7855 17.6139C37.2113 17.0396 36.4324 16.717 35.6203 16.717H32.5583" stroke="#2563EB" stroke-width="2.22" stroke-linecap="round" stroke-linejoin="round"/>
<path d="M14.186 38.1513V13.6551C14.186 12.8429 14.5086 12.0641 15.0829 11.4899C15.6571 10.9156 16.436 10.593 17.2481 10.593H29.4962C30.3083 10.593 31.0871 10.9156 31.6614 11.4899C32.2356 12.0641 32.5582 12.8429 32.5582 13.6551V38.1513" stroke="#2563EB" stroke-width="2.22" stroke-linecap="round" stroke-linejoin="round"/>
</svg>
