<svg width="50" height="50" viewBox="0 0 50 50" fill="none" xmlns="http://www.w3.org/2000/svg">
<rect width="50" height="50" rx="10" fill="#EFF6FF"/>
<path d="M20.3102 24.3722H26.4342" stroke="#2563EB" stroke-width="2.22" stroke-linecap="round" stroke-linejoin="round"/>
<path d="M20.3102 18.2481H26.4342" stroke="#2563EB" stroke-width="2.22" stroke-linecap="round" stroke-linejoin="round"/>
<path d="M26.4342 38.1514V33.5583C26.4342 32.7462 26.1116 31.9674 25.5374 31.3931C24.9632 30.8189 24.1843 30.4963 23.3722 30.4963C22.5601 30.4963 21.7813 30.8189 21.207 31.3931C20.6328 31.9674 20.3102 32.7462 20.3102 33.5583V38.1514" stroke="#2563EB" stroke-width="2.22" stroke-linecap="round" stroke-linejoin="round"/>
<path d="M14.1861 21.3102H11.1241C10.312 21.3102 9.53313 21.6328 8.95889 22.207C8.38465 22.7813 8.06204 23.5601 8.06204 24.3722V35.0893C8.06204 35.9014 8.38465 36.6803 8.95889 37.2545C9.53313 37.8287 10.312 38.1513 11.1241 38.1513H35.6203C36.4324 38.1513 37.2113 37.8287 37.7855 37.2545C38.3598 36.6803 38.6824 35.9014 38.6824 35.0893V19.7792C38.6824 18.967 38.3598 18.1882 37.7855 17.614C37.2113 17.0397 36.4324 16.7171 35.6203 16.7171H32.5583" stroke="#2563EB" stroke-width="2.22" stroke-linecap="round" stroke-linejoin="round"/>
<path d="M14.1861 38.1514V13.6551C14.1861 12.843 14.5087 12.0642 15.0829 11.4899C15.6572 10.9157 16.436 10.5931 17.2481 10.5931H29.4963C30.3084 10.5931 31.0872 10.9157 31.6614 11.4899C32.2357 12.0642 32.5583 12.843 32.5583 13.6551V38.1514" stroke="#2563EB" stroke-width="2.22" stroke-linecap="round" stroke-linejoin="round"/>
</svg>
