<svg width="52" height="46" viewBox="0 0 52 46" fill="none" xmlns="http://www.w3.org/2000/svg">
<rect width="51.1111" height="46" rx="15" fill="#2563EB"/>
<path d="M21.0833 23H27.4722" stroke="white" stroke-width="2.55556" stroke-linecap="round" stroke-linejoin="round"/>
<path d="M21.0833 17.25H27.4722" stroke="white" stroke-width="2.55556" stroke-linecap="round" stroke-linejoin="round"/>
<path d="M29.3889 33.8611V30.4111C29.3889 29.8011 28.9177 29.2161 28.079 28.7848C27.2403 28.3534 26.1028 28.1111 24.9167 28.1111C23.7306 28.1111 22.593 28.3534 21.7543 28.7848C20.9156 29.2161 20.4444 29.8011 20.4444 30.4111V33.8611" stroke="white" stroke-width="2.55556" stroke-linecap="round" stroke-linejoin="round"/>
<path d="M15.5889 23.1369H12.2667C11.3856 23.1369 10.5405 23.4158 9.9175 23.9121C9.29446 24.4085 8.94444 25.0817 8.94444 25.7837V35.0476C8.94444 35.7496 9.29446 36.4228 9.9175 36.9192C10.5405 37.4156 11.3856 37.6944 12.2667 37.6944H38.8444C39.7256 37.6944 40.5706 37.4156 41.1936 36.9192C41.8166 36.4228 42.1667 35.7496 42.1667 35.0476V21.8135C42.1667 21.1115 41.8166 20.4383 41.1936 19.9419C40.5706 19.4455 39.7256 19.1667 38.8444 19.1667H35.5222" stroke="white" stroke-width="2.55556" stroke-linecap="round" stroke-linejoin="round"/>
<path d="M15.9722 35.7778V13.0617C15.9722 12.3086 16.2751 11.5864 16.8143 11.0539C17.3535 10.5214 18.0847 10.2222 18.8472 10.2222H30.3472C31.1097 10.2222 31.841 10.5214 32.3802 11.0539C32.9193 11.5864 33.2222 12.3086 33.2222 13.0617V35.7778" stroke="white" stroke-width="2.55556" stroke-linecap="round" stroke-linejoin="round"/>
</svg>
