<svg width="50" height="50" viewBox="0 0 50 50" fill="none" xmlns="http://www.w3.org/2000/svg">
<rect width="50" height="50" rx="10" fill="#ECFDF5"/>
<path d="M35.7407 27.0608C35.7407 33.8895 30.9607 37.3038 25.2792 39.2841C24.9817 39.385 24.6585 39.3801 24.3641 39.2705C18.669 37.3038 13.8889 33.8895 13.8889 27.0608V17.5006C13.8889 17.1384 14.0328 16.791 14.2889 16.5349C14.5451 16.2788 14.8924 16.1349 15.2547 16.1349C17.9861 16.1349 21.4005 14.496 23.7769 12.4201C24.0662 12.1729 24.4343 12.037 24.8148 12.037C25.1954 12.037 25.5635 12.1729 25.8528 12.4201C28.2428 14.5096 31.6435 16.1349 34.375 16.1349C34.7372 16.1349 35.0846 16.2788 35.3407 16.5349C35.5969 16.791 35.7407 17.1384 35.7407 17.5006V27.0608Z" stroke="#10B981" stroke-width="2.22" stroke-linecap="round" stroke-linejoin="round"/>
<path d="M19.4445 26.3889L23.1482 30.5556L30.5556 22.2222" stroke="#10B981" stroke-width="2.16" stroke-linecap="round" stroke-linejoin="round"/>
</svg>
