<svg width="50" height="50" viewBox="0 0 50 50" fill="none" xmlns="http://www.w3.org/2000/svg">
<rect width="50" height="50" rx="10" fill="#064E3B"/>
<path d="M35.7405 27.0609C35.7405 33.8896 30.9604 37.3039 25.2789 39.2842C24.9814 39.385 24.6583 39.3802 24.3639 39.2706C18.6688 37.3039 13.8887 33.8896 13.8887 27.0609V17.5007C13.8887 17.1385 14.0326 16.7911 14.2887 16.535C14.5448 16.2788 14.8922 16.1349 15.2544 16.1349C17.9859 16.1349 21.4002 14.4961 23.7766 12.4201C24.066 12.1729 24.434 12.0371 24.8146 12.0371C25.1951 12.0371 25.5632 12.1729 25.8525 12.4201C28.2426 14.5097 31.6433 16.1349 34.3748 16.1349C34.737 16.1349 35.0844 16.2788 35.3405 16.535C35.5966 16.7911 35.7405 17.1385 35.7405 17.5007V27.0609Z" stroke="#10B981" stroke-width="2.22" stroke-linecap="round" stroke-linejoin="round"/>
<path d="M19.4443 26.3888L23.148 30.5555L30.5554 22.2222" stroke="#10B981" stroke-width="2.16" stroke-linecap="round" stroke-linejoin="round"/>
</svg>
