<svg width="50" height="50" viewBox="0 0 50 50" fill="none"
xmlns="http://www.w3.org/2000/svg"> <path d="M8.33333 41.6667H41.6667C42.7717 41.6667 43.8315 41.2277 44.6129 40.4463C45.3943 39.6649 45.8333 38.6051 45.8333 37.5V16.6667C45.8333 15.5616 45.3943 14.5018 44.6129 13.7204C43.8315 12.939 42.7717 12.5 41.6667 12.5H25.1458C24.4596 12.4964 23.7848 12.3234 23.1815 11.9963C22.5781 11.6692 22.0649 11.1982 21.6875 10.625L19.9792 8.125C19.6017 7.55183 19.0885 7.08077 18.4852 6.75366C17.8819 6.42656 17.2071 6.25355 16.5208 6.25H8.33333C7.22826 6.25 6.16846 6.68899 5.38705 7.47039C4.60565 8.25179 4.16667 9.3116 4.16667 10.4167V37.5C4.16667 39.7917 6.04167 41.6667 8.33333 41.6667Z" stroke="currentColor" stroke-width="2" stroke-linecap="round" stroke-linejoin="round"/> <path d="M16.6667 20.8334V29.1667" stroke="currentColor"
stroke-width="2" stroke-linecap="round" stroke-linejoin="round"/> <path d="M25 20.8334V25" stroke="currentColor"
stroke-width="2" stroke-linecap="round" stroke-linejoin="round"/> <path d="M33.3333 20.8334V33.3334" stroke="currentColor" stroke-width="2" stroke-linecap="round" stroke-linejoin="round"/> </svg>