<svg width="50" height="50" viewBox="0 0 50 50" fill="none" xmlns="http://www.w3.org/2000/svg">
<path d="M20.1479 8.61667C20.2627 7.40904 20.8236 6.28759 21.721 5.47142C22.6185 4.65524 23.788 4.20297 25.001 4.20297C26.2141 4.20297 27.3836 4.65524 28.281 5.47142C29.1785 6.28759 29.7394 7.40904 29.8542 8.61667C29.9232 9.39678 30.1791 10.1488 30.6003 10.809C31.0215 11.4693 31.5955 12.0184 32.2739 12.4097C32.9522 12.8011 33.7149 13.0233 34.4973 13.0575C35.2797 13.0917 36.0588 12.937 36.7688 12.6063C37.8711 12.1058 39.1202 12.0334 40.2729 12.4031C41.4257 12.7728 42.3996 13.5582 43.0052 14.6065C43.6109 15.6547 43.8048 16.8908 43.5493 18.0741C43.2937 19.2574 42.6071 20.3034 41.6229 21.0083C40.982 21.458 40.4589 22.0554 40.0977 22.7501C39.7366 23.4447 39.548 24.2161 39.548 24.999C39.548 25.7819 39.7366 26.5532 40.0977 27.2479C40.4589 27.9425 40.982 28.5399 41.6229 28.9896C42.6071 29.6946 43.2937 30.7405 43.5493 31.9238C43.8048 33.1071 43.6109 34.3432 43.0052 35.3915C42.3996 36.4397 41.4257 37.2251 40.2729 37.5948C39.1202 37.9645 37.8711 37.8921 36.7688 37.3917C36.0588 37.061 35.2797 36.9062 34.4973 36.9404C33.7149 36.9746 32.9522 37.1968 32.2739 37.5882C31.5955 37.9796 31.0215 38.5286 30.6003 39.1889C30.1791 39.8491 29.9232 40.6011 29.8542 41.3813C29.7394 42.5889 29.1785 43.7103 28.281 44.5265C27.3836 45.3427 26.2141 45.7949 25.001 45.7949C23.788 45.7949 22.6185 45.3427 21.721 44.5265C20.8236 43.7103 20.2627 42.5889 20.1479 41.3813C20.0791 40.6009 19.8231 39.8486 19.4018 39.1881C18.9805 38.5276 18.4062 37.9784 17.7276 37.5869C17.0489 37.1955 16.286 36.9734 15.5033 36.9394C14.7206 36.9054 13.9413 37.0605 13.2313 37.3917C12.1289 37.8921 10.8798 37.9645 9.72708 37.5948C8.57432 37.2251 7.60036 36.4397 6.99476 35.3915C6.38916 34.3432 6.19524 33.1071 6.45075 31.9238C6.70626 30.7405 7.39292 29.6946 8.37708 28.9896C9.01796 28.5399 9.54111 27.9425 9.90227 27.2479C10.2634 26.5532 10.452 25.7819 10.452 24.999C10.452 24.2161 10.2634 23.4447 9.90227 22.7501C9.54111 22.0554 9.01796 21.458 8.37708 21.0083C7.3943 20.303 6.70886 19.2575 6.45396 18.075C6.19907 16.8924 6.39294 15.6574 6.99788 14.6098C7.60283 13.5623 8.57565 12.777 9.72727 12.4068C10.8789 12.0365 12.1271 12.1076 13.2292 12.6063C13.9391 12.937 14.7182 13.0917 15.5006 13.0575C16.283 13.0233 17.0457 12.8011 17.724 12.4097C18.4024 12.0184 18.9764 11.4693 19.3976 10.809C19.8188 10.1488 20.0748 9.39678 20.1438 8.61667" stroke="currentColor" stroke-width="2" stroke-linecap="round" stroke-linejoin="round"/>
<path d="M25 31.25C28.4518 31.25 31.25 28.4518 31.25 25C31.25 21.5482 28.4518 18.75 25 18.75C21.5482 18.75 18.75 21.5482 18.75 25C18.75 28.4518 21.5482 31.25 25 31.25Z" stroke="currentColor" stroke-width="2" stroke-linecap="round" stroke-linejoin="round"/>
</svg>
