<svg width="35" height="35" viewBox="0 0 35 35" fill="none" xmlns="http://www.w3.org/2000/svg">
<path d="M26.25 3.65295C24.9413 3.65295 23.6328 4.14906 22.6411 5.14119L6.50122 21.2797C6.19498 21.5859 5.97071 21.9668 5.8518 22.3848L3.68851 29.9599C3.63516 30.1474 3.63286 30.3457 3.68184 30.5343C3.73082 30.7229 3.82931 30.895 3.96711 31.0328C4.10492 31.1706 4.27704 31.2691 4.46567 31.3181C4.6543 31.3671 4.85259 31.3648 5.04004 31.3114L12.6165 29.1482L12.618 29.1467C13.0332 29.0273 13.4131 28.8059 13.7203 28.4987L29.8588 12.3588C31.8429 10.3747 31.8429 7.12535 29.8588 5.14119C28.8671 4.14906 27.5586 3.65295 26.25 3.65295ZM26.25 5.82764C26.9943 5.82764 27.7376 6.11444 28.3107 6.68783H28.3121C29.4605 7.83617 29.4605 9.66383 28.3121 10.8122L26.8979 12.2264L22.7736 8.10201L24.1878 6.68783C24.7609 6.11444 25.5056 5.82764 26.25 5.82764ZM21.227 9.64864L25.3513 13.773L12.1722 26.9521C12.1294 26.9946 12.0753 27.0271 12.0141 27.0447L6.33174 28.6682L7.95528 22.9844V22.983C7.972 22.9242 8.00262 22.8716 8.04785 22.8263L21.227 9.64864Z" fill="white"/>
</svg>
